<?xml version="1.0" encoding="UTF-8" standalone="no"?><!DOCTYPE svg PUBLIC "-//W3C//DTD SVG 1.1//EN" "http://www.w3.org/Graphics/SVG/1.1/DTD/svg11.dtd"><svg width="100%" height="100%" viewBox="0 0 633 122" version="1.1" xmlns="http://www.w3.org/2000/svg" xmlns:xlink="http://www.w3.org/1999/xlink" xml:space="preserve" xmlns:serif="http://www.serif.com/" style="fill-rule:evenodd;clip-rule:evenodd;stroke-linejoin:round;stroke-miterlimit:2;"><g transform="matrix(0.197196,0,0,0.197196,-64.9453,-227.075)"><g transform="matrix(152.133,0,0,152.133,325.388,1262.27)"><path d="M0.529,-0.712l0,0.186c0,0.105 0.001,0.219 0.004,0.345c-0.036,-0.067 -0.086,-0.149 -0.126,-0.214l-0.199,-0.317l-0.15,0l0,0.712l0.13,0l0,-0.186c0,-0.105 0,-0.219 -0.004,-0.345c0.036,0.069 0.082,0.143 0.127,0.214l0.198,0.317l0.15,0l0,-0.712l-0.13,0Z" style="fill:#adadad;fill-rule:nonzero;"/></g><g transform="matrix(152.133,0,0,152.133,430.207,1262.27)"><path d="M0.528,-0.712l-0.078,0.128c-0.035,0.059 -0.071,0.12 -0.105,0.181c-0.034,-0.06 -0.071,-0.12 -0.107,-0.18l-0.079,-0.129l-0.153,0l0.269,0.431l0,0.281l0.135,0l0,-0.281l0.267,-0.431l-0.149,0Z" style="fill:#adadad;fill-rule:nonzero;"/></g><g transform="matrix(152.133,0,0,152.133,530.919,1262.27)"><path d="M0.346,0.015c0.183,0 0.298,-0.098 0.298,-0.283l0,-0.444l-0.135,0l0,0.445c0,0.112 -0.061,0.165 -0.163,0.165c-0.102,0 -0.163,-0.053 -0.163,-0.165l0,-0.445l-0.135,0l0,0.444c0,0.185 0.119,0.283 0.298,0.283Z" style="fill:#adadad;fill-rule:nonzero;"/></g><g transform="matrix(152.133,0,0,152.133,666.013,1262.27)"><path d="M0.608,-0.712l-0.592,0l0,0.121l0.228,0l0,0.591l0.136,0l0,-0.591l0.228,0l0,-0.121Z" style="fill:#adadad;fill-rule:nonzero;"/></g><g transform="matrix(152.133,0,0,152.133,741.775,1262.27)"><path d="M0.515,0c-0.014,-0.02 -0.021,-0.061 -0.021,-0.098l0,-0.275c0,-0.093 -0.061,-0.155 -0.215,-0.155c-0.161,0 -0.225,0.067 -0.232,0.176l0.124,0c0.005,-0.063 0.035,-0.082 0.107,-0.082c0.073,0 0.094,0.024 0.094,0.064c0,0.038 -0.025,0.053 -0.073,0.059l-0.078,0.007c-0.146,0.014 -0.198,0.075 -0.198,0.161c0,0.1 0.076,0.155 0.186,0.155c0.076,0 0.132,-0.027 0.166,-0.075c0.002,0.025 0.006,0.049 0.014,0.063l0.126,0Zm-0.276,-0.078c-0.058,0 -0.087,-0.027 -0.087,-0.07c0,-0.041 0.023,-0.066 0.093,-0.074l0.068,-0.008c0.027,-0.003 0.046,-0.009 0.059,-0.021l0,0.047c0,0.09 -0.066,0.126 -0.133,0.126Z" style="fill:#adadad;fill-rule:nonzero;"/></g><g transform="matrix(152.133,0,0,152.133,822.253,1262.27)"><path d="M0.334,-0.528c-0.073,0 -0.128,0.037 -0.161,0.086l0,-0.074l-0.122,0l0,0.516l0.126,0l0,-0.289c0,-0.092 0.06,-0.13 0.115,-0.13c0.064,0 0.097,0.032 0.097,0.098l0,0.321l0.126,0l0,-0.342c0,-0.123 -0.073,-0.186 -0.181,-0.186Z" style="fill:#adadad;fill-rule:nonzero;"/></g><g transform="matrix(152.133,0,0,152.133,906.839,1262.27)"><path d="M0.419,-0.712l0,0.263c-0.035,-0.05 -0.088,-0.079 -0.159,-0.079c-0.143,0 -0.232,0.106 -0.232,0.27c0,0.164 0.089,0.27 0.232,0.27c0.074,0 0.128,-0.032 0.163,-0.084l0,0.072l0.122,0l0,-0.712l-0.126,0Zm-0.13,0.62c-0.081,0 -0.132,-0.053 -0.132,-0.162c0,-0.109 0.051,-0.17 0.132,-0.17c0.082,0 0.133,0.057 0.133,0.166c0,0.109 -0.051,0.166 -0.133,0.166Z" style="fill:#adadad;fill-rule:nonzero;"/></g><g transform="matrix(152.133,0,0,152.133,995.989,1262.27)"><path d="M0.291,0.012c0.157,0 0.262,-0.106 0.262,-0.27c0,-0.164 -0.105,-0.27 -0.262,-0.27c-0.157,0 -0.263,0.106 -0.263,0.27c0,0.164 0.106,0.27 0.263,0.27Zm0,-0.104c-0.082,0 -0.134,-0.057 -0.134,-0.166c0,-0.109 0.052,-0.166 0.134,-0.166c0.081,0 0.134,0.057 0.134,0.166c0,0.109 -0.053,0.166 -0.134,0.166Z" style="fill:#adadad;fill-rule:nonzero;"/></g><g transform="matrix(152.133,0,0,152.133,1082.86,1262.27)"><path d="M0.334,-0.528c-0.073,0 -0.128,0.037 -0.161,0.086l0,-0.074l-0.122,0l0,0.516l0.126,0l0,-0.289c0,-0.092 0.06,-0.13 0.115,-0.13c0.064,0 0.097,0.032 0.097,0.098l0,0.321l0.126,0l0,-0.342c0,-0.123 -0.073,-0.186 -0.181,-0.186Z" style="fill:#adadad;fill-rule:nonzero;"/></g><g transform="matrix(152.133,0,0,152.133,1198.78,1262.27)"><path d="M0.329,0.016c0.178,0 0.288,-0.078 0.288,-0.219c0,-0.113 -0.068,-0.178 -0.236,-0.211l-0.062,-0.012c-0.106,-0.022 -0.139,-0.048 -0.139,-0.105c0,-0.054 0.042,-0.088 0.128,-0.088c0.113,0 0.152,0.043 0.157,0.119l0.131,0c-0.005,-0.134 -0.09,-0.228 -0.29,-0.228c-0.171,0 -0.264,0.083 -0.264,0.201c0,0.129 0.091,0.19 0.229,0.216l0.06,0.012c0.109,0.022 0.146,0.047 0.146,0.103c0,0.067 -0.051,0.103 -0.144,0.103c-0.099,0 -0.174,-0.03 -0.176,-0.142l-0.133,0c0.001,0.164 0.115,0.251 0.305,0.251Z" style="fill:#adadad;fill-rule:nonzero;"/></g><g transform="matrix(152.133,0,0,152.133,1296.76,1262.27)"><path d="M0.283,0.012c0.132,0 0.228,-0.078 0.242,-0.204l-0.126,0c-0.01,0.068 -0.059,0.099 -0.116,0.099c-0.073,0 -0.126,-0.052 -0.126,-0.165c0,-0.113 0.051,-0.165 0.126,-0.165c0.056,0 0.102,0.029 0.114,0.093l0.126,0c-0.015,-0.121 -0.105,-0.198 -0.24,-0.198c-0.154,0 -0.255,0.105 -0.255,0.27c0,0.165 0.102,0.27 0.255,0.27Z" style="fill:#adadad;fill-rule:nonzero;"/></g><g transform="matrix(152.133,0,0,152.133,1377.84,1262.27)"><path d="M0.334,-0.528c-0.07,0 -0.123,0.034 -0.157,0.081l0,-0.265l-0.126,0l0,0.712l0.126,0l0,-0.289c0,-0.092 0.06,-0.13 0.115,-0.13c0.064,0 0.097,0.032 0.097,0.098l0,0.321l0.126,0l0,-0.342c0,-0.123 -0.073,-0.186 -0.181,-0.186Z" style="fill:#adadad;fill-rule:nonzero;"/></g><g transform="matrix(152.133,0,0,152.133,1462.43,1262.27)"><path d="M0.291,0.012c0.157,0 0.262,-0.106 0.262,-0.27c0,-0.164 -0.105,-0.27 -0.262,-0.27c-0.157,0 -0.263,0.106 -0.263,0.27c0,0.164 0.106,0.27 0.263,0.27Zm0,-0.104c-0.082,0 -0.134,-0.057 -0.134,-0.166c0,-0.109 0.052,-0.166 0.134,-0.166c0.081,0 0.134,0.057 0.134,0.166c0,0.109 -0.053,0.166 -0.134,0.166Z" style="fill:#adadad;fill-rule:nonzero;"/></g><g transform="matrix(152.133,0,0,152.133,1549.3,1262.27)"><path d="M0.291,0.012c0.157,0 0.262,-0.106 0.262,-0.27c0,-0.164 -0.105,-0.27 -0.262,-0.27c-0.157,0 -0.263,0.106 -0.263,0.27c0,0.164 0.106,0.27 0.263,0.27Zm0,-0.104c-0.082,0 -0.134,-0.057 -0.134,-0.166c0,-0.109 0.052,-0.166 0.134,-0.166c0.081,0 0.134,0.057 0.134,0.166c0,0.109 -0.053,0.166 -0.134,0.166Z" style="fill:#adadad;fill-rule:nonzero;"/></g><g transform="matrix(152.133,0,0,152.133,1636.16,1262.27)"><rect x="0.051" y="-0.712" width="0.126" height="0.712" style="fill:#adadad;fill-rule:nonzero;"/></g><g transform="matrix(152.133,0,0,152.133,1700.67,1262.27)"><path d="M0.291,0.012c0.157,0 0.262,-0.106 0.262,-0.27c0,-0.164 -0.105,-0.27 -0.262,-0.27c-0.157,0 -0.263,0.106 -0.263,0.27c0,0.164 0.106,0.27 0.263,0.27Zm0,-0.104c-0.082,0 -0.134,-0.057 -0.134,-0.166c0,-0.109 0.052,-0.166 0.134,-0.166c0.081,0 0.134,0.057 0.134,0.166c0,0.109 -0.053,0.166 -0.134,0.166Z" style="fill:#adadad;fill-rule:nonzero;"/></g><g transform="matrix(152.133,0,0,152.133,1784.49,1262.27)"><path d="M0.283,-0.615l0.044,0l0,-0.097c-0.018,-0.002 -0.045,-0.003 -0.065,-0.003c-0.124,0 -0.169,0.069 -0.169,0.16l0,0.039l-0.08,0l0,0.096l0.08,0l0,0.42l0.125,0l0,-0.42l0.106,0l0,-0.096l-0.106,0l0,-0.037c0,-0.04 0.02,-0.062 0.065,-0.062Z" style="fill:#adadad;fill-rule:nonzero;"/></g><g transform="matrix(152.133,0,0,152.133,1867.41,1262.27)"><path d="M0.583,-0.591l0,-0.121l-0.525,0l0,0.712l0.523,0l0,-0.121l-0.388,0l0,-0.186l0.353,0l0,-0.116l-0.353,0l0,-0.168l0.39,0Z" style="fill:#adadad;fill-rule:nonzero;"/></g><g transform="matrix(152.133,0,0,152.133,1958.38,1262.27)"><path d="M0.334,-0.528c-0.073,0 -0.128,0.037 -0.161,0.086l0,-0.074l-0.122,0l0,0.516l0.126,0l0,-0.289c0,-0.092 0.06,-0.13 0.115,-0.13c0.064,0 0.097,0.032 0.097,0.098l0,0.321l0.126,0l0,-0.342c0,-0.123 -0.073,-0.186 -0.181,-0.186Z" style="fill:#adadad;fill-rule:nonzero;"/></g><g transform="matrix(152.133,0,0,152.133,2042.97,1262.27)"><path d="M0.423,-0.516l0,0.071c-0.034,-0.052 -0.088,-0.083 -0.163,-0.083c-0.141,0 -0.232,0.105 -0.232,0.263c0,0.157 0.093,0.263 0.233,0.263c0.072,0 0.124,-0.029 0.158,-0.077l0,0.065c0,0.081 -0.044,0.125 -0.127,0.125c-0.069,0 -0.109,-0.028 -0.115,-0.083l-0.124,0c0.008,0.107 0.088,0.18 0.237,0.18c0.168,0 0.255,-0.089 0.255,-0.225l0,-0.499l-0.122,0Zm-0.134,0.41c-0.081,0 -0.132,-0.058 -0.132,-0.158c0,-0.1 0.051,-0.16 0.132,-0.16c0.082,0 0.133,0.056 0.133,0.159c0,0.102 -0.051,0.159 -0.133,0.159Z" style="fill:#adadad;fill-rule:nonzero;"/></g><g transform="matrix(152.133,0,0,152.133,2132.12,1262.27)"><path d="M0.052,-0.583l0.124,0l0,-0.118l-0.124,0l0,0.118Zm-0.001,0.583l0.126,0l0,-0.516l-0.126,0l0,0.516Z" style="fill:#adadad;fill-rule:nonzero;"/></g><g transform="matrix(152.133,0,0,152.133,2165.28,1262.27)"><path d="M0.334,-0.528c-0.073,0 -0.128,0.037 -0.161,0.086l0,-0.074l-0.122,0l0,0.516l0.126,0l0,-0.289c0,-0.092 0.06,-0.13 0.115,-0.13c0.064,0 0.097,0.032 0.097,0.098l0,0.321l0.126,0l0,-0.342c0,-0.123 -0.073,-0.186 -0.181,-0.186Z" style="fill:#adadad;fill-rule:nonzero;"/></g><g transform="matrix(152.133,0,0,152.133,2249.87,1262.27)"><path d="M0.538,-0.249c0,-0.164 -0.097,-0.279 -0.255,-0.279c-0.153,0 -0.255,0.108 -0.255,0.27c0,0.165 0.105,0.27 0.257,0.27c0.124,0 0.214,-0.067 0.24,-0.172l-0.121,0c-0.019,0.046 -0.058,0.074 -0.118,0.074c-0.073,0 -0.125,-0.041 -0.134,-0.133l0.386,0l0,-0.03Zm-0.256,-0.181c0.075,0 0.12,0.05 0.13,0.123l-0.259,0c0.012,-0.085 0.062,-0.123 0.129,-0.123Z" style="fill:#adadad;fill-rule:nonzero;"/></g><g transform="matrix(152.133,0,0,152.133,2334.76,1262.27)"><path d="M0.538,-0.249c0,-0.164 -0.097,-0.279 -0.255,-0.279c-0.153,0 -0.255,0.108 -0.255,0.27c0,0.165 0.105,0.27 0.257,0.27c0.124,0 0.214,-0.067 0.24,-0.172l-0.121,0c-0.019,0.046 -0.058,0.074 -0.118,0.074c-0.073,0 -0.125,-0.041 -0.134,-0.133l0.386,0l0,-0.03Zm-0.256,-0.181c0.075,0 0.12,0.05 0.13,0.123l-0.259,0c0.012,-0.085 0.062,-0.123 0.129,-0.123Z" style="fill:#adadad;fill-rule:nonzero;"/></g><g transform="matrix(152.133,0,0,152.133,2419.65,1262.27)"><path d="M0.327,-0.524c-0.08,0 -0.129,0.042 -0.154,0.1l0,-0.092l-0.122,0l0,0.516l0.126,0l0,-0.262c0,-0.098 0.056,-0.144 0.149,-0.144l0.032,0l0,-0.116c-0.011,-0.002 -0.02,-0.002 -0.031,-0.002Z" style="fill:#adadad;fill-rule:nonzero;"/></g><g transform="matrix(152.133,0,0,152.133,2475.18,1262.27)"><path d="M0.052,-0.583l0.124,0l0,-0.118l-0.124,0l0,0.118Zm-0.001,0.583l0.126,0l0,-0.516l-0.126,0l0,0.516Z" style="fill:#adadad;fill-rule:nonzero;"/></g><g transform="matrix(152.133,0,0,152.133,2508.34,1262.27)"><path d="M0.334,-0.528c-0.073,0 -0.128,0.037 -0.161,0.086l0,-0.074l-0.122,0l0,0.516l0.126,0l0,-0.289c0,-0.092 0.06,-0.13 0.115,-0.13c0.064,0 0.097,0.032 0.097,0.098l0,0.321l0.126,0l0,-0.342c0,-0.123 -0.073,-0.186 -0.181,-0.186Z" style="fill:#adadad;fill-rule:nonzero;"/></g><g transform="matrix(152.133,0,0,152.133,2592.93,1262.27)"><path d="M0.423,-0.516l0,0.071c-0.034,-0.052 -0.088,-0.083 -0.163,-0.083c-0.141,0 -0.232,0.105 -0.232,0.263c0,0.157 0.093,0.263 0.233,0.263c0.072,0 0.124,-0.029 0.158,-0.077l0,0.065c0,0.081 -0.044,0.125 -0.127,0.125c-0.069,0 -0.109,-0.028 -0.115,-0.083l-0.124,0c0.008,0.107 0.088,0.18 0.237,0.18c0.168,0 0.255,-0.089 0.255,-0.225l0,-0.499l-0.122,0Zm-0.134,0.41c-0.081,0 -0.132,-0.058 -0.132,-0.158c0,-0.1 0.051,-0.16 0.132,-0.16c0.082,0 0.133,0.056 0.133,0.159c0,0.102 -0.051,0.159 -0.133,0.159Z" style="fill:#adadad;fill-rule:nonzero;"/></g><g transform="matrix(152.133,0,0,152.133,2713.42,1262.27)"><path d="M0.187,-0.147c0.076,0 0.141,-0.062 0.141,-0.143c0,-0.077 -0.065,-0.138 -0.141,-0.138c-0.082,0 -0.145,0.061 -0.145,0.138c0,0.081 0.063,0.143 0.145,0.143Z" style="fill:#adadad;fill-rule:nonzero;"/></g><g transform="matrix(152.133,0,0,152.133,2799.52,1262.27)"><path d="M0.384,0.016c0.213,0 0.355,-0.148 0.355,-0.372c0,-0.224 -0.142,-0.372 -0.355,-0.372c-0.214,0 -0.356,0.148 -0.356,0.372c0,0.224 0.142,0.372 0.356,0.372Zm0,-0.119c-0.13,0 -0.215,-0.096 -0.215,-0.253c0,-0.157 0.085,-0.253 0.215,-0.253c0.13,0 0.215,0.096 0.215,0.253c0,0.157 -0.085,0.253 -0.215,0.253Z" style="fill:#adadad;fill-rule:nonzero;"/></g><g transform="matrix(152.133,0,0,152.133,2915.6,1262.27)"><path d="M0.283,0.012c0.132,0 0.228,-0.078 0.242,-0.204l-0.126,0c-0.01,0.068 -0.059,0.099 -0.116,0.099c-0.073,0 -0.126,-0.052 -0.126,-0.165c0,-0.113 0.051,-0.165 0.126,-0.165c0.056,0 0.102,0.029 0.114,0.093l0.126,0c-0.015,-0.121 -0.105,-0.198 -0.24,-0.198c-0.154,0 -0.255,0.105 -0.255,0.27c0,0.165 0.102,0.27 0.255,0.27Z" style="fill:#adadad;fill-rule:nonzero;"/></g><g transform="matrix(152.133,0,0,152.133,2994.71,1262.27)"><path d="M0.32,-0.42l0,-0.096l-0.102,0l0,-0.15l-0.125,0l0,0.15l-0.08,0l0,0.096l0.08,0l0,0.292c0,0.095 0.052,0.132 0.161,0.132c0.02,0 0.043,-0.002 0.066,-0.004l0,-0.096l-0.043,0c-0.042,0 -0.059,-0.011 -0.059,-0.045l0,-0.279l0.102,0Z" style="fill:#adadad;fill-rule:nonzero;"/></g><g transform="matrix(152.133,0,0,152.133,3043.85,1262.27)"><path d="M0.291,0.012c0.157,0 0.262,-0.106 0.262,-0.27c0,-0.164 -0.105,-0.27 -0.262,-0.27c-0.157,0 -0.263,0.106 -0.263,0.27c0,0.164 0.106,0.27 0.263,0.27Zm0,-0.104c-0.082,0 -0.134,-0.057 -0.134,-0.166c0,-0.109 0.052,-0.166 0.134,-0.166c0.081,0 0.134,0.057 0.134,0.166c0,0.109 -0.053,0.166 -0.134,0.166Z" style="fill:#adadad;fill-rule:nonzero;"/></g><g transform="matrix(152.133,0,0,152.133,3130.72,1262.27)"><path d="M0.337,-0.528c-0.072,0 -0.125,0.029 -0.16,0.079l0,-0.263l-0.126,0l0,0.712l0.121,0l0,-0.074c0.035,0.054 0.09,0.086 0.165,0.086c0.142,0 0.231,-0.106 0.231,-0.27c0,-0.164 -0.089,-0.27 -0.231,-0.27Zm-0.03,0.436c-0.082,0 -0.133,-0.057 -0.133,-0.166c0,-0.109 0.051,-0.166 0.133,-0.166c0.082,0 0.133,0.053 0.133,0.162c0,0.109 -0.051,0.17 -0.133,0.17Z" style="fill:#adadad;fill-rule:nonzero;"/></g><g transform="matrix(152.133,0,0,152.133,3219.87,1262.27)"><path d="M0.538,-0.249c0,-0.164 -0.097,-0.279 -0.255,-0.279c-0.153,0 -0.255,0.108 -0.255,0.27c0,0.165 0.105,0.27 0.257,0.27c0.124,0 0.214,-0.067 0.24,-0.172l-0.121,0c-0.019,0.046 -0.058,0.074 -0.118,0.074c-0.073,0 -0.125,-0.041 -0.134,-0.133l0.386,0l0,-0.03Zm-0.256,-0.181c0.075,0 0.12,0.05 0.13,0.123l-0.259,0c0.012,-0.085 0.062,-0.123 0.129,-0.123Z" style="fill:#adadad;fill-rule:nonzero;"/></g><g transform="matrix(152.133,0,0,152.133,3304.76,1262.27)"><path d="M0.327,-0.524c-0.08,0 -0.129,0.042 -0.154,0.1l0,-0.092l-0.122,0l0,0.516l0.126,0l0,-0.262c0,-0.098 0.056,-0.144 0.149,-0.144l0.032,0l0,-0.116c-0.011,-0.002 -0.02,-0.002 -0.031,-0.002Z" style="fill:#adadad;fill-rule:nonzero;"/></g><g transform="matrix(152.133,0,0,152.133,3392.54,1262.27)"><path d="M0.334,-0.712l-0.107,0c-0.022,0.102 -0.084,0.13 -0.176,0.136l-0.016,0.001l0,0.095l0.164,0l0,0.48l0.135,0l0,-0.712Z" style="fill:#adadad;fill-rule:nonzero;"/></g><g transform="matrix(152.133,0,0,152.133,3450.8,1262.27)"><path d="M0.19,-0.114c0.005,-0.061 0.038,-0.09 0.105,-0.126l0.066,-0.035c0.125,-0.062 0.188,-0.13 0.188,-0.243c0,-0.121 -0.094,-0.21 -0.249,-0.21c-0.173,0 -0.258,0.095 -0.257,0.244l0.13,0c0,-0.091 0.046,-0.13 0.123,-0.13c0.075,0 0.117,0.042 0.117,0.106c0,0.062 -0.033,0.099 -0.114,0.138l-0.07,0.036c-0.162,0.073 -0.182,0.187 -0.187,0.281l-0.003,0.053l0.518,0l0,-0.114l-0.367,0Z" style="fill:#adadad;fill-rule:nonzero;"/></g><g transform="matrix(304.265,0,0,304.265,325.388,1522.59)"><path d="M0.32,-0.42l0,-0.096l-0.102,0l0,-0.15l-0.125,0l0,0.15l-0.08,0l0,0.096l0.08,0l0,0.292c0,0.095 0.052,0.132 0.161,0.132c0.02,0 0.043,-0.002 0.066,-0.004l0,-0.096l-0.043,0c-0.042,0 -0.059,-0.011 -0.059,-0.045l0,-0.279l0.102,0Z" style="fill:#e26b1b;fill-rule:nonzero;"/></g><g transform="matrix(304.265,0,0,304.265,429.751,1522.59)"><path d="M0.327,-0.524c-0.08,0 -0.129,0.042 -0.154,0.1l0,-0.092l-0.122,0l0,0.516l0.126,0l0,-0.262c0,-0.098 0.056,-0.144 0.149,-0.144l0.032,0l0,-0.116c-0.011,-0.002 -0.02,-0.002 -0.031,-0.002Z" style="fill:#e26b1b;fill-rule:nonzero;"/></g><g transform="matrix(304.265,0,0,304.265,534.723,1522.59)"><path d="M0.515,0c-0.014,-0.02 -0.021,-0.061 -0.021,-0.098l0,-0.275c0,-0.093 -0.061,-0.155 -0.215,-0.155c-0.161,0 -0.225,0.067 -0.232,0.176l0.124,0c0.005,-0.063 0.035,-0.082 0.107,-0.082c0.073,0 0.094,0.024 0.094,0.064c0,0.038 -0.025,0.053 -0.073,0.059l-0.078,0.007c-0.146,0.014 -0.198,0.075 -0.198,0.161c0,0.1 0.076,0.155 0.186,0.155c0.076,0 0.132,-0.027 0.166,-0.075c0.002,0.025 0.006,0.049 0.014,0.063l0.126,0Zm-0.276,-0.078c-0.058,0 -0.087,-0.027 -0.087,-0.07c0,-0.041 0.023,-0.066 0.093,-0.074l0.068,-0.008c0.027,-0.003 0.046,-0.009 0.059,-0.021l0,0.047c0,0.09 -0.066,0.126 -0.133,0.126Z" style="fill:#e26b1b;fill-rule:nonzero;"/></g><g transform="matrix(304.265,0,0,304.265,698.722,1522.59)"><path d="M0.334,-0.528c-0.073,0 -0.128,0.037 -0.161,0.086l0,-0.074l-0.122,0l0,0.516l0.126,0l0,-0.289c0,-0.092 0.06,-0.13 0.115,-0.13c0.064,0 0.097,0.032 0.097,0.098l0,0.321l0.126,0l0,-0.342c0,-0.123 -0.073,-0.186 -0.181,-0.186Z" style="fill:#e26b1b;fill-rule:nonzero;"/></g><g transform="matrix(304.265,0,0,304.265,870.936,1522.59)"><path d="M0.254,0.014c0.144,0 0.229,-0.058 0.229,-0.162c0,-0.089 -0.055,-0.135 -0.179,-0.157l-0.065,-0.01c-0.056,-0.01 -0.086,-0.025 -0.086,-0.063c0,-0.037 0.029,-0.06 0.09,-0.06c0.065,0 0.106,0.019 0.109,0.085l0.119,0c-0.004,-0.106 -0.069,-0.175 -0.228,-0.175c-0.138,0 -0.214,0.059 -0.214,0.156c0,0.088 0.058,0.137 0.169,0.156l0.059,0.01c0.078,0.013 0.101,0.031 0.101,0.068c0,0.039 -0.029,0.062 -0.102,0.062c-0.075,0 -0.108,-0.023 -0.115,-0.088l-0.123,0c0.008,0.125 0.089,0.178 0.236,0.178Z" style="fill:#e26b1b;fill-rule:nonzero;"/></g><g transform="matrix(304.265,0,0,304.265,1022.76,1522.59)"><path d="M0.337,-0.528c-0.075,0 -0.13,0.032 -0.165,0.086l0,-0.074l-0.121,0l0,0.712l0.126,0l0,-0.263c0.035,0.05 0.088,0.079 0.16,0.079c0.142,0 0.231,-0.106 0.231,-0.27c0,-0.164 -0.089,-0.27 -0.231,-0.27Zm-0.03,0.436c-0.082,0 -0.133,-0.057 -0.133,-0.166c0,-0.109 0.051,-0.166 0.133,-0.166c0.082,0 0.133,0.053 0.133,0.162c0,0.109 -0.051,0.17 -0.133,0.17Z" style="fill:#e26b1b;fill-rule:nonzero;"/></g><g transform="matrix(304.265,0,0,304.265,1204.11,1522.59)"><path d="M0.291,0.012c0.157,0 0.262,-0.106 0.262,-0.27c0,-0.164 -0.105,-0.27 -0.262,-0.27c-0.157,0 -0.263,0.106 -0.263,0.27c0,0.164 0.106,0.27 0.263,0.27Zm0,-0.104c-0.082,0 -0.134,-0.057 -0.134,-0.166c0,-0.109 0.052,-0.166 0.134,-0.166c0.081,0 0.134,0.057 0.134,0.166c0,0.109 -0.053,0.166 -0.134,0.166Z" style="fill:#e26b1b;fill-rule:nonzero;"/></g><g transform="matrix(304.265,0,0,304.265,1380.88,1522.59)"><path d="M0.327,-0.524c-0.08,0 -0.129,0.042 -0.154,0.1l0,-0.092l-0.122,0l0,0.516l0.126,0l0,-0.262c0,-0.098 0.056,-0.144 0.149,-0.144l0.032,0l0,-0.116c-0.011,-0.002 -0.02,-0.002 -0.031,-0.002Z" style="fill:#e26b1b;fill-rule:nonzero;"/></g><g transform="matrix(304.265,0,0,304.265,1496.51,1522.59)"><path d="M0.32,-0.42l0,-0.096l-0.102,0l0,-0.15l-0.125,0l0,0.15l-0.08,0l0,0.096l0.08,0l0,0.292c0,0.095 0.052,0.132 0.161,0.132c0.02,0 0.043,-0.002 0.066,-0.004l0,-0.096l-0.043,0c-0.042,0 -0.059,-0.011 -0.059,-0.045l0,-0.279l0.102,0Z" style="fill:#e26b1b;fill-rule:nonzero;"/></g><g transform="matrix(304.265,0,0,304.265,1599.96,1522.59)"><path d="M0.515,0c-0.014,-0.02 -0.021,-0.061 -0.021,-0.098l0,-0.275c0,-0.093 -0.061,-0.155 -0.215,-0.155c-0.161,0 -0.225,0.067 -0.232,0.176l0.124,0c0.005,-0.063 0.035,-0.082 0.107,-0.082c0.073,0 0.094,0.024 0.094,0.064c0,0.038 -0.025,0.053 -0.073,0.059l-0.078,0.007c-0.146,0.014 -0.198,0.075 -0.198,0.161c0,0.1 0.076,0.155 0.186,0.155c0.076,0 0.132,-0.027 0.166,-0.075c0.002,0.025 0.006,0.049 0.014,0.063l0.126,0Zm-0.276,-0.078c-0.058,0 -0.087,-0.027 -0.087,-0.07c0,-0.041 0.023,-0.066 0.093,-0.074l0.068,-0.008c0.027,-0.003 0.046,-0.009 0.059,-0.021l0,0.047c0,0.09 -0.066,0.126 -0.133,0.126Z" style="fill:#e26b1b;fill-rule:nonzero;"/></g><g transform="matrix(304.265,0,0,304.265,1759.09,1522.59)"><path d="M0.32,-0.42l0,-0.096l-0.102,0l0,-0.15l-0.125,0l0,0.15l-0.08,0l0,0.096l0.08,0l0,0.292c0,0.095 0.052,0.132 0.161,0.132c0.02,0 0.043,-0.002 0.066,-0.004l0,-0.096l-0.043,0c-0.042,0 -0.059,-0.011 -0.059,-0.045l0,-0.279l0.102,0Z" style="fill:#e26b1b;fill-rule:nonzero;"/></g><g transform="matrix(304.265,0,0,304.265,1863.45,1522.59)"><path d="M0.114,-0.578c0.038,0 0.069,-0.031 0.069,-0.069c0,-0.039 -0.031,-0.07 -0.069,-0.07c-0.039,0 -0.07,0.031 -0.07,0.07c0,0.038 0.031,0.069 0.07,0.069Zm-0.063,0.578l0.126,0l0,-0.516l-0.126,0l0,0.516Z" style="fill:#e26b1b;fill-rule:nonzero;"/></g><g transform="matrix(304.265,0,0,304.265,1932.82,1522.59)"><path d="M0.291,0.012c0.157,0 0.262,-0.106 0.262,-0.27c0,-0.164 -0.105,-0.27 -0.262,-0.27c-0.157,0 -0.263,0.106 -0.263,0.27c0,0.164 0.106,0.27 0.263,0.27Zm0,-0.104c-0.082,0 -0.134,-0.057 -0.134,-0.166c0,-0.109 0.052,-0.166 0.134,-0.166c0.081,0 0.134,0.057 0.134,0.166c0,0.109 -0.053,0.166 -0.134,0.166Z" style="fill:#e26b1b;fill-rule:nonzero;"/></g><g transform="matrix(304.265,0,0,304.265,2109.6,1522.59)"><path d="M0.334,-0.528c-0.073,0 -0.128,0.037 -0.161,0.086l0,-0.074l-0.122,0l0,0.516l0.126,0l0,-0.289c0,-0.092 0.06,-0.13 0.115,-0.13c0.064,0 0.097,0.032 0.097,0.098l0,0.321l0.126,0l0,-0.342c0,-0.123 -0.073,-0.186 -0.181,-0.186Z" style="fill:#e26b1b;fill-rule:nonzero;"/></g><g transform="matrix(304.265,0,0,304.265,2281.81,1522.59)"><path d="M0.283,0.012c0.132,0 0.228,-0.078 0.242,-0.204l-0.126,0c-0.01,0.068 -0.059,0.099 -0.116,0.099c-0.073,0 -0.126,-0.052 -0.126,-0.165c0,-0.113 0.051,-0.165 0.126,-0.165c0.056,0 0.102,0.029 0.114,0.093l0.126,0c-0.015,-0.121 -0.105,-0.198 -0.24,-0.198c-0.154,0 -0.255,0.105 -0.255,0.27c0,0.165 0.102,0.27 0.255,0.27Z" style="fill:#adadad;fill-rule:nonzero;"/></g><g transform="matrix(304.265,0,0,304.265,2448.25,1522.59)"><path d="M0.515,0c-0.014,-0.02 -0.021,-0.061 -0.021,-0.098l0,-0.275c0,-0.093 -0.061,-0.155 -0.215,-0.155c-0.161,0 -0.225,0.067 -0.232,0.176l0.124,0c0.005,-0.063 0.035,-0.082 0.107,-0.082c0.073,0 0.094,0.024 0.094,0.064c0,0.038 -0.025,0.053 -0.073,0.059l-0.078,0.007c-0.146,0.014 -0.198,0.075 -0.198,0.161c0,0.1 0.076,0.155 0.186,0.155c0.076,0 0.132,-0.027 0.166,-0.075c0.002,0.025 0.006,0.049 0.014,0.063l0.126,0Zm-0.276,-0.078c-0.058,0 -0.087,-0.027 -0.087,-0.07c0,-0.041 0.023,-0.066 0.093,-0.074l0.068,-0.008c0.027,-0.003 0.046,-0.009 0.059,-0.021l0,0.047c0,0.09 -0.066,0.126 -0.133,0.126Z" style="fill:#adadad;fill-rule:nonzero;"/></g><g transform="matrix(304.265,0,0,304.265,2612.25,1522.59)"><path d="M0.64,-0.528c-0.072,0 -0.126,0.041 -0.16,0.096c-0.026,-0.059 -0.081,-0.096 -0.16,-0.096c-0.068,0 -0.116,0.036 -0.147,0.086l0,-0.074l-0.122,0l0,0.516l0.126,0l0,-0.284c0,-0.097 0.053,-0.135 0.106,-0.135c0.06,0 0.09,0.032 0.09,0.098l0,0.321l0.125,0l0,-0.284c0,-0.097 0.052,-0.135 0.107,-0.135c0.06,0 0.089,0.032 0.089,0.098l0,0.321l0.126,0l0,-0.341c0,-0.114 -0.065,-0.187 -0.18,-0.187Z" style="fill:#adadad;fill-rule:nonzero;"/></g><g transform="matrix(304.265,0,0,304.265,2877.26,1522.59)"><path d="M0.337,-0.528c-0.075,0 -0.13,0.032 -0.165,0.086l0,-0.074l-0.121,0l0,0.712l0.126,0l0,-0.263c0.035,0.05 0.088,0.079 0.16,0.079c0.142,0 0.231,-0.106 0.231,-0.27c0,-0.164 -0.089,-0.27 -0.231,-0.27Zm-0.03,0.436c-0.082,0 -0.133,-0.057 -0.133,-0.166c0,-0.109 0.051,-0.166 0.133,-0.166c0.082,0 0.133,0.053 0.133,0.162c0,0.109 -0.051,0.17 -0.133,0.17Z" style="fill:#adadad;fill-rule:nonzero;"/></g><g transform="matrix(304.265,0,0,304.265,3058.6,1522.59)"><path d="M0.334,-0.528c-0.073,0 -0.128,0.037 -0.161,0.086l0,-0.074l-0.122,0l0,0.516l0.126,0l0,-0.289c0,-0.092 0.06,-0.13 0.115,-0.13c0.064,0 0.097,0.032 0.097,0.098l0,0.321l0.126,0l0,-0.342c0,-0.123 -0.073,-0.186 -0.181,-0.186Z" style="fill-rule:nonzero;"/></g><g transform="matrix(304.265,0,0,304.265,3223.21,1522.59)"><path d="M0.388,-0.516l-0.042,0.13c-0.028,0.091 -0.056,0.185 -0.083,0.287c-0.026,-0.101 -0.054,-0.198 -0.082,-0.288l-0.042,-0.129l-0.136,0l0.15,0.424c0.012,0.034 0.024,0.073 0.024,0.104c0,0.043 -0.023,0.083 -0.085,0.083l-0.048,0l0,0.099c0.016,0.002 0.031,0.003 0.055,0.003c0.125,0 0.181,-0.04 0.222,-0.155l0.199,-0.558l-0.132,0Z" style="fill-rule:nonzero;"/></g><g transform="matrix(304.265,0,0,304.265,3374.13,1522.59)"><path d="M0.283,0.012c0.132,0 0.228,-0.078 0.242,-0.204l-0.126,0c-0.01,0.068 -0.059,0.099 -0.116,0.099c-0.073,0 -0.126,-0.052 -0.126,-0.165c0,-0.113 0.051,-0.165 0.126,-0.165c0.056,0 0.102,0.029 0.114,0.093l0.126,0c-0.015,-0.121 -0.105,-0.198 -0.24,-0.198c-0.154,0 -0.255,0.105 -0.255,0.27c0,0.165 0.102,0.27 0.255,0.27Z" style="fill-rule:nonzero;"/></g><g transform="matrix(212.986,0,0,212.986,3063.75,1762.62)"><path d="M0.19,-0.114c0.005,-0.061 0.038,-0.09 0.105,-0.126l0.066,-0.035c0.125,-0.062 0.188,-0.13 0.188,-0.243c0,-0.121 -0.094,-0.21 -0.249,-0.21c-0.173,0 -0.258,0.095 -0.257,0.244l0.13,0c0,-0.091 0.046,-0.13 0.123,-0.13c0.075,0 0.117,0.042 0.117,0.106c0,0.062 -0.033,0.099 -0.114,0.138l-0.07,0.036c-0.162,0.073 -0.182,0.187 -0.187,0.281l-0.003,0.053l0.518,0l0,-0.114l-0.367,0Z" style="fill-rule:nonzero;"/></g><g transform="matrix(212.986,0,0,212.986,3186.64,1762.62)"><path d="M0.326,0.016c0.191,0 0.286,-0.136 0.286,-0.372c0,-0.236 -0.096,-0.372 -0.286,-0.372c-0.189,0 -0.285,0.136 -0.285,0.372c0,0.236 0.096,0.372 0.285,0.372Zm0,-0.114c-0.092,0 -0.144,-0.077 -0.144,-0.258c0,-0.181 0.052,-0.258 0.144,-0.258c0.093,0 0.145,0.077 0.145,0.258c0,0.181 -0.051,0.258 -0.145,0.258Z" style="fill-rule:nonzero;"/></g><g transform="matrix(212.986,0,0,212.986,3322.1,1762.62)"><path d="M0.334,-0.712l-0.107,0c-0.022,0.102 -0.084,0.13 -0.176,0.136l-0.016,0.001l0,0.095l0.164,0l0,0.48l0.135,0l0,-0.712Z" style="fill-rule:nonzero;"/></g><g transform="matrix(212.986,0,0,212.986,3406.65,1762.62)"><path d="M0.469,-0.673c-0.043,-0.032 -0.101,-0.051 -0.168,-0.051c-0.156,0 -0.265,0.1 -0.265,0.248c0,0.125 0.084,0.236 0.242,0.236c0.076,0 0.14,-0.033 0.178,-0.089c-0.005,0.169 -0.053,0.245 -0.153,0.245c-0.071,0 -0.117,-0.03 -0.13,-0.094l-0.126,0c0.019,0.126 0.116,0.198 0.257,0.198c0.185,0 0.278,-0.145 0.278,-0.382c0,-0.135 -0.028,-0.246 -0.113,-0.311Zm-0.168,0.33c-0.08,0 -0.134,-0.057 -0.134,-0.136c0,-0.078 0.054,-0.136 0.134,-0.136c0.08,0 0.134,0.057 0.134,0.136c0,0.08 -0.054,0.136 -0.134,0.136Z" style="fill-rule:nonzero;"/></g></g></svg>